#!OML:ASF F:\VICON\USERDATA\INSTALL\rory3\rory3.ASF
:FULLY-SPECIFIED
:DEGREES
377
root 1.55976 16.2318 26.9097 -161.815 -27.5402 -176.674
lowerback -5.19541 -4.55526 1.66169
upperback -8.46365 -6.76382 2.88351
thorax -5.7473 -3.6999 2.09665
lowerneck -20.7532 0.963513 -2.5967
upperneck 32.7944 0.647821 0.216869
head 14.8493 -0.646943 0.49561
rclavicle -3.1317e-014 -2.0686e-014
rhumerus -43.0576 39.8533 -98.0327
rradius 52.3163
rwrist -36.8344
rhand -3.56305 1.20416
rfingers 7.12502
rthumb 22.1735 -27.5442
lclavicle -3.1317e-014 -2.0686e-014
lhumerus -36.1218 -73.8128 124.152
lradius 45.6329
lwrist 20.684
lhand 7.7566 26.9195
lfingers 7.12502
lthumb 32.9956 53.9207
rfemur -60.5431 -8.64879 27.6848
rtibia 53.6416
rfoot -8.06205 -18.789
rtoes 11.25
lfemur -3.49537 3.55673 -14.2758
ltibia 27.7957
lfoot -55.4319 34.3227
ltoes 0.725683
378
root 1.54833 16.2066 26.6912 -162.006 -28.0263 -176.325
lowerback -6.11133 -4.49887 2.01988
upperback -8.71443 -6.78403 2.85558
thorax -5.54638 -3.76356 1.80013
lowerneck -20.1737 0.90938 -2.74779
upperneck 33.1282 0.368918 0.565402
head 14.8737 -0.777366 0.604344
rclavicle -1.68652e-014 1.00138e-014
rhumerus -43.98 43.2059 -99.2545
rradius 54.3051
rwrist -37.0642
rhand -2.3447 1.24193
rfingers 7.12502
rthumb 23.3427 -27.3627
lclavicle -1.68652e-014 1.00138e-014
lhumerus -37.8153 -76.3365 125.379
lradius 48.5678
lwrist 22.7851
lhand 9.05851 27.0354
lfingers 7.12502
lthumb 34.2328 53.7672
rfemur -60.095 -8.83384 28.3514
rtibia 54.3358
rfoot -9.24369 -18.9706
rtoes 11.0351
lfemur -2.48784 2.93762 -13.4646
ltibia 27.0301
lfoot -55.039 33.9442
ltoes 8.22841
379
root 1.53538 16.1871 26.4827 -162.194 -28.606 -175.901
lowerback -7.00085 -4.46539 2.50777
upperback -8.87656 -6.83344 2.90373
thorax -5.27411 -3.84176 1.50645
lowerneck -19.949 0.825976 -3.04607
upperneck 33.4775 0.157558 0.86439
head 14.9869 -0.896451 0.734359
rclavicle -3.27606e-014 -1.67476e-014
rhumerus -44.5141 46.488 -99.8814
rradius 56.5645
rwrist -37.5139
rhand -1.0779 1.30889
rfingers 7.12502
rthumb 24.5575 -27.1362
lclavicle -3.27606e-014 -1.67476e-014
lhumerus -37.156 -78.4779 124.282
lradius 51.4456
lwrist 25.0104
lhand 9.87421 27.0494
lfingers 7.12502
lthumb 35.007 53.6038
rfemur -59.438 -9.02284 29.0775
rtibia 54.6172
rfoot -10.5935 -19.1961
rtoes 12.335
lfemur -1.67961 2.07482 -12.6333
ltibia 26.4297
lfoot -56.1331 31.8881
ltoes 20.8053
380
root 1.52748 16.2132 26.2518 -162.528 -29.2959 -175.502
lowerback -7.83355 -4.44071 2.76147
upperback -9.00823 -6.88481 2.93065
thorax -4.97918 -3.90343 1.3198
lowerneck -19.6679 0.780197 -3.03688
upperneck 33.9064 -0.0482668 0.919175
head 15.1282 -1.01691 0.708789
rclavicle -1.07157e-013 -2.46741e-014
rhumerus -44.9172 49.45 -100.311
rradius 58.7422
rwrist -38.298
rhand 0.28728 1.44175
rfingers 7.12502
rthumb 25.8655 -26.8192
lclavicle -1.07157e-013 -2.46741e-014
lhumerus -34.3299 -79.9746 121.062
lradius 54.1181
lwrist 27.4393
lhand 11.2388 27.1602
lfingers 7.12502
lthumb 36.3004 53.4024
rfemur -58.1295 -9.03898 29.6898
rtibia 54.405
rfoot -12.126 -19.6207
rtoes 14.1539
lfemur -1.11766 1.12864 -11.7022
ltibia 26.12
lfoot -56.8153 31.3056
ltoes 26.2358
381
root 1.50872 16.2484 26.0618 -162.535 -29.3126 -174.733
lowerback -8.75235 -4.03299 3.56886
upperback -9.37984 -6.50998 2.93931
thorax -4.95914 -3.80963 0.84506
lowerneck -19.352 0.741846 -3.05386
upperneck 34.4485 -0.279224 1.01422
head 15.3178 -1.15646 0.697539
rclavicle -2.07978e-014 2.06239e-014
rhumerus -45.6268 52.5351 -100.932
rradius 61.0865
rwrist -39.2951
rhand 1.59408 1.26246
rfingers 7.12502
rthumb 27.1163 -26.8099
lclavicle -2.07978e-014 2.06239e-014
lhumerus -34.3953 -82.0631 120.609
lradius 56.5858
lwrist 28.3966
lhand 9.99251 25.8689
lfingers 7.12502
lthumb 35.1192 52.3971
rfemur -57.3453 -8.42443 30.5162
rtibia 53.7629
rfoot -12.7044 -20.0052
rtoes 14.1639
lfemur -1.28998 0.266478 -10.9979
ltibia 25.9602
lfoot -58.1581 30.7841
ltoes 29.1162
382
root 1.49162 16.3096 25.8774 -162.538 -29.4547 -173.997
lowerback -9.70528 -3.67666 4.24269
upperback -9.71218 -6.21164 3.04384
thorax -4.8491 -3.74389 0.536982
lowerneck -18.9524 0.66627 -3.32041
upperneck 34.9502 -0.512342 1.18027
head 15.472 -1.32182 0.759443
rclavicle 1.01442e-013 3.47873e-016
rhumerus -46.3502 55.7794 -101.376
rradius 63.5605
rwrist -40.2939
rhand 2.05136 1.29802
rfingers 7.12502
rthumb 27.5537 -26.7053
lclavicle 1.01442e-013 3.47873e-016
lhumerus -29.0097 -83.2724 114.962
lradius 59.1084
lwrist 31.3704
lhand 10.0949 26.5669
lfingers 7.12502
lthumb 35.2164 53.0722
rfemur -56.3759 -7.78452 31.2856
rtibia 52.8131
rfoot -12.979 -20.6556
rtoes 13.3589
lfemur -1.61709 -0.382081 -10.2797
ltibia 25.8064
lfoot -58.6416 31.2888
ltoes 32.4009
383
root 1.48145 16.3915 25.6806 -162.381 -30.1485 -173.867
lowerback -10.6958 -3.58395 4.20276
upperback -9.98892 -6.21332 3.08173
thorax -4.59652 -3.77833 0.526534
lowerneck -18.3857 0.555795 -3.42958
upperneck 35.2882 -0.782729 1.16309
head 15.5112 -1.50148 0.711439
rclavicle 2.57659e-014 -5.38334e-014
rhumerus -46.7239 58.544 -101.295
rradius 66.1033
rwrist -41.1916
rhand 2.72259 1.29088
rfingers 7.12502
rthumb 28.1954 -26.6084
lclavicle 2.57659e-014 -5.38334e-014
lhumerus -22.0147 -84.4717 107.791
lradius 61.2103
lwrist 33.4144
lhand 10.0358 26.2524
lfingers 7.12502
lthumb 35.1603 52.7708
rfemur -55.1721 -7.37317 31.4723
rtibia 51.7696
rfoot -13.3873 -21.7091
rtoes 13.8949
lfemur -2.16339 -1.40055 -9.87147
ltibia 25.5936
lfoot -58.1999 32.8748
ltoes 33.7938
384
root 1.46476 16.4632 25.514 -162.364 -30.5446 -173.666
lowerback -11.2634 -3.41631 4.30433
upperback -10.2845 -6.09474 3.15584
thorax -4.60644 -3.75922 0.527412
lowerneck -18.0626 0.514874 -3.44364
upperneck 35.7115 -0.904808 0.984024
head 15.6449 -1.62774 0.604504
rclavicle -3.09289e-014 7.21837e-015
rhumerus -46.5834 61.0257 -100.602
rradius 68.5086
rwrist -42.352
rhand 4.85044 1.0162
rfingers 7.12502
rthumb 30.2273 -26.5297
lclavicle -3.09289e-014 7.21837e-015
lhumerus -11.3369 -84.917 97.0212
lradius 62.919
lwrist 35.1442
lhand 10.8803 25.7801
lfingers 7.12502
lthumb 35.9608 52.1062
rfemur -53.9746 -6.74955 31.5532
rtibia 50.6705
rfoot -13.3875 -22.595
rtoes 14.8346
lfemur -2.90324 -2.38855 -9.63543
ltibia 25.2017
lfoot -55.3394 37.1776
ltoes 30.3231
385
root 1.45317 16.5342 25.3471 -162.296 -30.8976 -173.491
lowerback -11.7935 -3.25862 4.23375
upperback -10.6145 -5.98043 3.31069
thorax -4.64868 -3.73332 0.713138
lowerneck -17.8493 0.496477 -3.70394
upperneck 36.2537 -0.98307 0.983371
head 15.866 -1.75092 0.622178
rclavicle 5.30134e-014 -3.60297e-014
rhumerus -46.2035 63.5365 -99.7552
rradius 70.5654
rwrist -43.9066
rhand 7.48444 0.933128
rfingers 7.12502
rthumb 32.7367 -26.1223
lclavicle 5.30134e-014 -3.60297e-014
lhumerus -0.265379 -84.8184 85.9391
lradius 64.6437
lwrist 37.7398
lhand 12.6992 26.1098
lfingers 7.12502
lthumb 37.6818 51.9949
rfemur -52.8282 -5.94082 31.5565
rtibia 49.5599
rfoot -13.1415 -23.5604
rtoes 14.7676
lfemur -2.72746 -3.48874 -9.3693
ltibia 24.6966
lfoot -54.8367 32.1124
ltoes 33.3834
386
root 1.4373 16.6204 25.1972 -162.616 -30.9764 -173.34
lowerback -11.4218 -3.02295 4.30195
upperback -11.1651 -5.72351 3.33934
thorax -5.44944 -3.6601 0.806249
lowerneck -17.0786 0.507839 -4.02629
upperneck 36.8193 -1.13191 1.0604
head 15.9704 -1.93269 0.666727
rclavicle -8.31168e-015 3.66758e-014
rhumerus -47.3661 65.7419 -100.341
rradius 72.6321
rwrist -45.232
rhand 9.08887 1.10494
rfingers 7.12502
rthumb 34.2617 -25.6204
lclavicle -8.31168e-015 3.66758e-014
lhumerus 3.39597 -85.4334 81.9265
lradius 66.5606
lwrist 39.2169
lhand 12.5325 25.7077
lfingers 7.12502
lthumb 37.5242 51.6349
rfemur -51.2174 -4.96692 31.37
rtibia 48.3774
rfoot -12.5566 -24.4564
rtoes 13.9712
lfemur -2.92392 -4.0748 -9.49471
ltibia 24.2498
lfoot -55.0609 31.1469
ltoes 34.9462
387
root 1.4204 16.7206 25.0674 -162.785 -30.9578 -173.454
lowerback -11.8879 -2.95499 4.00408
upperback -10.8473 -5.60056 3.43612
thorax -4.80593 -3.54812 1.00575
lowerneck -17.3654 0.321596 -4.28175
upperneck 36.9759 -1.25159 0.902798
head 16.1267 -2.04004 0.619054
rclavicle -2.84635e-014 -4.47266e-015
rhumerus -44.822 68.343 -97.482
rradius 74.5661
rwrist -46.4439
rhand 8.59576 1.44666
rfingers 7.12502
rthumb 33.7933 -25.3828
lclavicle -2.84635e-014 -4.47266e-015
lhumerus 24.6693 -85.1386 60.3225
lradius 68.2916
lwrist 40.4352
lhand 12.4603 25.2663
lfingers 7.12502
lthumb 37.456 51.2115
rfemur -49.7053 -3.82412 30.8157
rtibia 47.1843
rfoot -12.0972 -25.3288
rtoes 13.694
lfemur -3.29697 -4.55277 -9.99262
ltibia 23.8787
lfoot -54.8824 30.9338
ltoes 35.1029
388
root 1.39189 16.8294 24.9512 -162.829 -30.9766 -173.687
lowerback -12.0836 -2.73612 3.88285
upperback -10.8278 -5.30856 3.28788
thorax -4.67686 -3.39631 0.919864
lowerneck -17.0608 0.108436 -4.34378
upperneck 37.1253 -1.63959 0.899768
head 16.1442 -2.23273 0.552954
rclavicle 2.68235e-014 -3.08116e-015
rhumerus -42.7125 69.9434 -94.9901
rradius 76.1822
rwrist -47.4386
rhand 11.0976 1.66961
rfingers 7.12502
rthumb 36.1667 -24.6058
lclavicle 2.68235e-014 -3.08116e-015
lhumerus 31.5325 -83.9667 53.2567
lradius 69.7581
lwrist 43.4763
lhand 14.212 26.2107
lfingers 7.12502
lthumb 39.1094 51.6993
rfemur -48.318 -2.94871 30.154
rtibia 45.939
rfoot -11.6437 -25.9118
rtoes 13.6808
lfemur -3.92186 -4.80042 -10.6705
ltibia 23.586
lfoot -54.3008 30.3453
ltoes 34.3394
389
root 1.35722 16.9467 24.8449 -162.718 -30.8463 -174.197
lowerback -12.3782 -2.51092 3.42949
upperback -10.7909 -4.98309 3.10214
thorax -4.44932 -3.20676 0.972192
lowerneck -16.4706 -0.0256589 -4.26277
upperneck 37.1839 -2.01536 0.9815
head 16.0438 -2.39149 0.504637
rclavicle -4.19933e-014 -3.79679e-014
rhumerus -40.0374 71.0089 -91.943
rradius 77.4802
rwrist -48.6055
rhand 12.7736 1.82112
rfingers 7.12502
rthumb 37.752 -24.0452
lclavicle -4.19933e-014 -3.79679e-014
lhumerus 40.7212 -83.5409 43.7773
lradius 71.2024
lwrist 44.6042
lhand 12.4418 25.3306
lfingers 7.12502
lthumb 37.4384 51.2805
rfemur -47.0199 -2.16797 29.1917
rtibia 44.6789
rfoot -10.7482 -26.2544
rtoes 14.2291
lfemur -4.77791 -5.11016 -11.7705
ltibia 23.4619
lfoot -53.9536 29.4631
ltoes 33.8077
390
root 1.32955 17.0799 24.7499 -162.652 -30.6627 -174.421
lowerback -12.8719 -2.35214 3.10678
upperback -10.502 -4.73771 3.14818
thorax -3.83742 -3.04101 1.15869
lowerneck -16.4985 -0.147715 -4.45004
upperneck 37.2411 -2.20067 1.13146
head 16.0917 -2.47181 0.568862
rclavicle -6.9674e-014 -3.37934e-015
rhumerus -35.4383 72.4196 -87.1116
rradius 78.5597
rwrist -49.5809
rhand 11.8137 2.28453
rfingers 7.12502
rthumb 36.8445 -23.82
lclavicle -6.9674e-014 -3.37934e-015
lhumerus 47.7482 -82.29 36.5498
lradius 72.4983
lwrist 46.2626
lhand 14.2431 25.5942
lfingers 7.12502
lthumb 39.1388 51.0744
rfemur -45.8354 -0.915911 28.3668
rtibia 43.3659
rfoot -9.26893 -26.8749
rtoes 14.1957
lfemur -5.94117 -5.46973 -12.6473
ltibia 23.5303
lfoot -53.5515 28.7632
ltoes 33.2166
391
root 1.31352 17.2188 24.6688 -162.576 -30.4609 -174.566
lowerback -12.7359 -1.99321 3.07422
upperback -10.5845 -4.25516 2.98511
thorax -4.00749 -2.80598 1.06491
lowerneck -16.1725 -0.369018 -4.67888
upperneck 37.301 -2.61525 1.36138
head 16.0675 -2.65827 0.633785
rclavicle 5.94366e-014 -3.89618e-014
rhumerus -33.3169 73.7329 -84.6036
rradius 79.7703
rwrist -50.0004
rhand 12.5544 2.89292
rfingers 7.12502
rthumb 37.5449 -23.0287
lclavicle 5.94366e-014 -3.89618e-014
lhumerus 53.9301 -81.6273 30.1254
lradius 73.872
lwrist 48.1466
lhand 15.5177 25.9789
lfingers 7.12502
lthumb 40.3387 51.1018
rfemur -44.8478 0.506363 27.5988
rtibia 42.0943
rfoot -7.25522 -27.6421
rtoes 13.0873
lfemur -7.35423 -5.48046 -13.407
ltibia 23.6712
lfoot -52.0746 28.9167
ltoes 31.4588
